<?xml version="1.0" encoding="UTF-8"?>
<svg xmlns="http://www.w3.org/2000/svg" version="1.1" width="500" height="500" style="background-color:transparent;">
  <path d="M0 0 C165 0 330 0 500 0 C500 165 500 330 500 500 C335 500 170 500 0 500 C0 335 0 170 0 0 Z " fill="#FEFEFE" transform="translate(0,0)"/>
  <path d="M0 0 C5.383125 -0.061875 10.76625 -0.12375 16.3125 -0.1875 C17.98739502 -0.21481201 19.66229004 -0.24212402 21.38793945 -0.27026367 C32.22353954 -0.37451222 42.4380883 -0.22447679 50.7578125 7.59765625 C53.94567569 11.19653325 53.38450545 15.42874247 53.3515625 20.0078125 C52.81903925 24.54017708 51.41950847 26.04678814 48 29 C44.73791081 31.31503104 41.93241958 31.17874634 38 31 C38 31.66 38 32.32 38 33 C39.03125 33.103125 40.0625 33.20625 41.125 33.3125 C46.90656125 34.33826087 51.39633165 36.29136783 55.08203125 41.0625 C57.03744224 45.18966532 56.71642767 49.58312483 56 54 C53.31230961 59.37538078 49.66159711 62.72378503 43.9765625 64.67578125 C35.69222546 67.00774759 26.89661791 66.31046027 18.375 66.1875 C12.31125 66.125625 6.2475 66.06375 0 66 C0 44.22 0 22.44 0 0 Z " fill="#040404" transform="translate(143,244)"/>
  <path d="M0 0 C7.26 0 14.52 0 22 0 C25.01377571 7.99487723 28.0142888 15.99459794 31 24 C31.39977051 25.07169434 31.79954102 26.14338867 32.21142578 27.24755859 C33.33439933 30.26704708 34.44980724 33.28921003 35.5625 36.3125 C35.90861328 37.2420752 36.25472656 38.17165039 36.61132812 39.12939453 C36.92650391 39.99032715 37.24167969 40.85125977 37.56640625 41.73828125 C37.84427979 42.49149658 38.12215332 43.24471191 38.40844727 44.02075195 C39 46 39 46 39 49 C39.66 49 40.32 49 41 49 C41.26353271 47.70835937 41.52706543 46.41671875 41.79858398 45.0859375 C42.90616916 40.11366578 44.480525 35.40611552 46.22265625 30.625 C46.52819931 29.77446045 46.83374237 28.9239209 47.14854431 28.04760742 C47.78889764 26.26859465 48.43187829 24.49052553 49.07739258 22.71337891 C50.0691163 19.98177607 51.05176583 17.24703216 52.03320312 14.51171875 C52.65832907 12.77845636 53.28396162 11.04537658 53.91015625 9.3125 C54.35235252 8.08297607 54.35235252 8.08297607 54.80348206 6.82861328 C56.88397816 1.11602184 56.88397816 1.11602184 58 0 C64.93 0 71.86 0 79 0 C79 21.78 79 43.56 79 66 C74.38 66 69.76 66 65 66 C64.81788481 48.98234737 65.38264744 32.00346575 66 15 C65.34 15 64.68 15 64 15 C63.90251465 15.63881104 63.8050293 16.27762207 63.70458984 16.93579102 C62.74399209 21.11335943 61.2391618 25.02157678 59.7265625 29.02734375 C59.23994644 30.32714928 59.23994644 30.32714928 58.74349976 31.6532135 C58.05775472 33.48199384 57.3701002 35.31005916 56.68066406 37.13745117 C55.63071566 39.92233975 54.58836771 42.70998664 53.546875 45.49804688 C52.87805853 47.27881655 52.20880212 49.05942107 51.5390625 50.83984375 C51.22957672 51.66814194 50.92009094 52.49644012 50.60122681 53.34983826 C48.95352753 57.70273922 47.17354691 61.87407849 45 66 C41.04 66 37.08 66 33 66 C30.93567891 60.64772957 28.8727472 55.29492638 26.81103516 49.94165039 C26.11121047 48.12510131 25.41102319 46.30869188 24.71044922 44.49243164 C23.6966084 41.86382153 22.68412461 39.23469197 21.671875 36.60546875 C21.36441345 35.8091655 21.0569519 35.01286224 20.74017334 34.19242859 C18.41692746 28.15234023 16.21269037 22.08489853 14 16 C13.67 32.5 13.34 49 13 66 C8.71 66 4.42 66 0 66 C0 44.22 0 22.44 0 0 Z " fill="#040404" transform="translate(23,244)"/>
  <path d="M0 0 C0.76695694 0.00424484 1.53391388 0.00848969 2.32411194 0.01286316 C4.74899957 0.02951805 7.17302423 0.06714322 9.59765625 0.10546875 C11.25194103 0.12053274 12.90623898 0.13421813 14.56054688 0.14648438 C18.59407728 0.17937798 22.62697098 0.23106626 26.66015625 0.29296875 C26.66015625 3.59296875 26.66015625 6.89296875 26.66015625 10.29296875 C21.1733767 10.37738074 16.06735214 10.21334252 10.66015625 9.29296875 C10.66015625 9.95296875 10.66015625 10.61296875 10.66015625 11.29296875 C11.89765625 11.54046875 13.13515625 11.78796875 14.41015625 12.04296875 C18.20110227 13.03278947 20.58378153 13.77215944 22.66015625 17.29296875 C23.08313141 21.99856742 22.35492981 25.32449651 19.59765625 29.16796875 C11.05748126 35.34596768 1.80585367 34.9586219 -8.33984375 35.29296875 C-8.99984375 36.61296875 -9.65984375 37.93296875 -10.33984375 39.29296875 C-9.56382812 39.30231445 -8.7878125 39.31166016 -7.98828125 39.32128906 C-4.43818088 39.37530312 -0.88935427 39.45889178 2.66015625 39.54296875 C3.88089844 39.55714844 5.10164063 39.57132812 6.359375 39.5859375 C14.44901141 39.80457632 20.55540578 40.35142904 26.625 46.1796875 C28.81283949 50.64618247 28.42826493 55.48284552 27.66015625 60.29296875 C25.54160686 64.59016822 22.4025917 67.17599204 18.09765625 69.16796875 C11.49954816 71.32734958 5.36578361 71.53948476 -1.52734375 71.60546875 C-3.01331055 71.64897461 -3.01331055 71.64897461 -4.52929688 71.69335938 C-11.47099727 71.75253453 -17.21368238 70.68430411 -23.33984375 67.29296875 C-25.82624691 64.51404758 -26.24399131 62.95024262 -26.77734375 59.29296875 C-26.22710507 55.51990353 -25.01583638 53.96896138 -22.33984375 51.29296875 C-19.07024468 49.0042494 -16.26011112 49.11477478 -12.33984375 49.29296875 C-12.33984375 48.30296875 -12.33984375 47.31296875 -12.33984375 46.29296875 C-13.59796875 46.35484375 -14.85609375 46.41671875 -16.15234375 46.48046875 C-18.82687776 46.47098459 -20.05437373 46.45733028 -22.40234375 45.10546875 C-23.33984375 43.29296875 -23.33984375 43.29296875 -23.33984375 40.85546875 C-22.00088759 37.42439358 -20.45162679 36.22918931 -17.33984375 34.29296875 C-14.02734375 33.54296875 -14.02734375 33.54296875 -11.33984375 33.29296875 C-11.33984375 32.63296875 -11.33984375 31.97296875 -11.33984375 31.29296875 C-12.22671875 31.23109375 -13.11359375 31.16921875 -14.02734375 31.10546875 C-18.74886148 29.94736063 -20.86523946 27.32932706 -23.65234375 23.48046875 C-25.2376575 18.43628865 -25.03719732 14.63602007 -22.65234375 10.04296875 C-16.31307202 2.50437535 -9.57554095 -0.20325675 0 0 Z " fill="#060606" transform="translate(357.33984375,256.70703125)"/>
  <path d="M0 0 C4.62 0 9.24 0 14 0 C14 23.43 14 46.86 14 71 C10.04 71 6.08 71 2 71 C2 66.05 2 61.1 2 56 C1.34 56 0.68 56 0 56 C-0.0825 56.680625 -0.165 57.36125 -0.25 58.0625 C-1.4410919 62.72760995 -3.48265022 66.62059111 -7.0625 69.875 C-12.30153145 72.91701826 -18.13895549 72.74264166 -24 72 C-30.47564401 69.46394809 -34.04517311 65.24392822 -37.125 59.1484375 C-40.5504348 50.7377717 -40.49997003 38.75848855 -37.3125 30.25 C-34.75170404 24.92028685 -30.88549506 21.25699671 -26 18 C-20.98137589 16.3271253 -15.72039882 15.96652651 -10.70703125 17.87109375 C-5.74421901 20.71097693 -3.24341359 23.76536828 -1 29 C-0.75 31.9375 -0.75 31.9375 -1 34 C-0.01 34 0.98 34 2 34 C1.8570752 33.42459473 1.71415039 32.84918945 1.56689453 32.25634766 C-0.02556572 25.22866063 -0.23848498 18.55947248 -0.125 11.375 C-0.11597656 10.27542969 -0.10695313 9.17585937 -0.09765625 8.04296875 C-0.07434246 5.36188292 -0.03848198 2.68091102 0 0 Z " fill="#030303" transform="translate(308,239)"/>
  <path d="M0 0 C5.17837171 3.88611982 8.93173532 9.23330491 10.16015625 15.62109375 C10.16015625 19.58109375 10.16015625 23.54109375 10.16015625 27.62109375 C-1.71984375 27.62109375 -13.59984375 27.62109375 -25.83984375 27.62109375 C-23.79850904 36.13751631 -23.79850904 36.13751631 -20.08984375 39.18359375 C-16.29018535 40.86421189 -13.95406014 41.14472129 -9.83984375 40.62109375 C-6.75814735 39.2514509 -5.26413904 38.32825257 -3.52734375 35.43359375 C-3.30046875 34.83546875 -3.07359375 34.23734375 -2.83984375 33.62109375 C1.98375814 33.42814967 5.65662363 33.86361761 10.16015625 35.62109375 C9.62383005 40.17986642 8.03815315 43.06146601 5.16015625 46.62109375 C-3.01569843 52.38799125 -11.17601424 52.4318861 -20.83984375 51.62109375 C-27.18738679 50.3088993 -31.51227387 47.71747094 -35.5859375 42.6953125 C-39.23258982 36.66299978 -40.39819074 31.77773581 -40.33984375 24.80859375 C-40.33412354 24.01614258 -40.32840332 23.22369141 -40.32250977 22.40722656 C-40.09409985 14.89815438 -38.28114825 9.43840777 -33.1953125 3.796875 C-23.87742975 -4.88999989 -11.15873455 -6.40493219 0 0 Z " fill="#070707" transform="translate(430.83984375,259.37890625)"/>
  <path d="M0 0 C4.95 0 9.9 0 15 0 C15.04898438 2.39636719 15.09796875 4.79273438 15.1484375 7.26171875 C15.20250296 9.59177704 15.25978849 11.92173556 15.31738281 14.25170898 C15.35558072 15.8665417 15.39044945 17.48145684 15.421875 19.09643555 C15.46772609 21.42266217 15.52568584 23.74832592 15.5859375 26.07421875 C15.59748871 26.79212082 15.60903992 27.51002289 15.62094116 28.24967957 C15.77171996 33.41226753 16.27620868 37.27620868 20 41 C25.45262266 41.59194295 25.45262266 41.59194295 30.3125 39.5625 C35.58165649 31.5611883 35.52081343 22.74813549 35.6875 13.4375 C35.72166016 12.14263672 35.75582031 10.84777344 35.79101562 9.51367188 C35.8729216 6.34274054 35.93815051 3.17138594 36 0 C40.62 0 45.24 0 50 0 C50 17.49 50 34.98 50 53 C46.04 53 42.08 53 38 53 C38 47.39 38 41.78 38 36 C37.34 36 36.68 36 36 36 C35.90203125 36.58007812 35.8040625 37.16015625 35.703125 37.7578125 C34.48419174 44.12568798 32.89091373 48.8318147 27.5 52.875 C21.1184615 54.9262088 14.66952943 55.19175421 8.5 52.4375 C2.48846158 46.57625004 -0.01828057 39.19097111 -0.22705078 30.87890625 C-0.22674033 29.44006531 -0.2158167 28.00119487 -0.1953125 26.5625 C-0.1924826 25.79695801 -0.18965271 25.03141602 -0.18673706 24.24267578 C-0.17565648 21.82828276 -0.15057601 19.41427846 -0.125 17 C-0.11495448 15.35026582 -0.1058314 13.70052576 -0.09765625 12.05078125 C-0.07746935 8.0335886 -0.03829979 4.01722279 0 0 Z " fill="#070707" transform="translate(209,257)"/>
  <path d="M0 0 C2.64 0 5.28 0 8 0 C8 3.96 8 7.92 8 12 C12.29 12 16.58 12 21 12 C21 15.63 21 19.26 21 23 C16.71 23 12.42 23 8 23 C8.08670905 27.10522522 8.19356706 31.20819147 8.3125 35.3125 C8.33505859 36.47974609 8.35761719 37.64699219 8.38085938 38.84960938 C8.4340332 40.52700195 8.4340332 40.52700195 8.48828125 42.23828125 C8.51446533 43.26993408 8.54064941 44.30158691 8.56762695 45.36450195 C8.79552036 48.02170755 8.79552036 48.02170755 10.37695312 49.84179688 C12.68483669 51.48869814 14.38970896 51.29650485 17.1875 51.1875 C18.775625 51.125625 20.36375 51.06375 22 51 C22 55.29 22 59.58 22 64 C16.27775579 65.90741474 8.59248839 66.26063684 2.8515625 64.24609375 C-0.50253694 62.07529335 -3.28682183 59.12206516 -4.56811523 55.30957031 C-5.15041199 52.19564871 -5.11107807 49.21442561 -5.09765625 46.046875 C-5.0962413 45.38665344 -5.09482635 44.72643188 -5.09336853 44.04620361 C-5.08779245 41.94742206 -5.07524447 39.84874905 -5.0625 37.75 C-5.0574819 36.32291821 -5.05291954 34.89583475 -5.04882812 33.46875 C-5.03783088 29.97913168 -5.0205828 26.48957644 -5 23 C-7.64 23 -10.28 23 -13 23 C-13 19.37 -13 15.74 -13 12 C-9.7 11.34 -6.4 10.68 -3 10 C-2.01 6.7 -1.02 3.4 0 0 Z " fill="#020202" transform="translate(459,246)"/>
  <path d="M0 0 C4.95 0 9.9 0 15 0 C15 17.49 15 34.98 15 53 C10.05 53 5.1 53 0 53 C0 35.51 0 18.02 0 0 Z " fill="#0D0D0D" transform="translate(115,257)"/>
  <path d="M0 0 C4.1211663 1.82098046 6.43373926 4.33391323 9 8 C10.84961854 13.54885563 10.79897602 18.9415324 8.375 24.3125 C6.23403788 28.06857389 4.00567377 30.19351967 0 32 C-4.42427025 32.07761878 -6.34892101 31.52086319 -9.8125 28.75 C-14.61224359 22.71603663 -14.84075146 16.47559728 -14 9 C-12.1875 5.4375 -12.1875 5.4375 -10 3 C-9.566875 2.38125 -9.13375 1.7625 -8.6875 1.125 C-5.82132338 -0.78578442 -3.33435699 -0.34493348 0 0 Z " fill="#F7F7F7" transform="translate(298,268)"/>
  <path d="M0 0 C3.18842705 -0.10859354 6.37310727 -0.18759399 9.5625 -0.25 C10.45775391 -0.28351563 11.35300781 -0.31703125 12.27539062 -0.3515625 C18.41630616 -0.44153928 21.9950046 0.3722181 27 4 C28.40457737 6.80915474 28.24895157 8.88810534 28 12 C26.22015595 15.1359157 25.47691793 15.84102736 22 17 C20.29983156 17.08178114 18.59663703 17.10749501 16.89453125 17.09765625 C15.91162109 17.09443359 14.92871094 17.09121094 13.91601562 17.08789062 C12.89185547 17.07951172 11.86769531 17.07113281 10.8125 17.0625 C9.77673828 17.05798828 8.74097656 17.05347656 7.67382812 17.04882812 C5.1158608 17.03704026 2.55792314 17.01910482 0 17 C0 11.39 0 5.78 0 0 Z " fill="#FBFBFB" transform="translate(157,281)"/>
  <path d="M0 0 C2.495625 -0.061875 4.99125 -0.12375 7.5625 -0.1875 C8.33408447 -0.21481201 9.10566895 -0.24212402 9.90063477 -0.27026367 C15.00654882 -0.33077724 18.46188791 0.63651917 23 3 C25 5 25 5 25.4375 8.375 C25 12 25 12 22.6875 14.375 C19.32790302 16.40638422 16.84574561 17.12665974 12.98828125 17.09765625 C11.96408081 17.09390991 11.96408081 17.09390991 10.91918945 17.09008789 C10.05898193 17.08098389 9.19877441 17.07187988 8.3125 17.0625 C4.1978125 17.0315625 4.1978125 17.0315625 0 17 C0 11.39 0 5.78 0 0 Z " fill="#F9F9F9" transform="translate(157,255)"/>
  <path d="M0 0 C0.92103516 -0.00386719 1.84207031 -0.00773437 2.79101562 -0.01171875 C3.74556641 -0.00011719 4.70011719 0.01148438 5.68359375 0.0234375 C6.64201172 0.01183594 7.60042969 0.00023437 8.58789062 -0.01171875 C9.50763672 -0.00785156 10.42738281 -0.00398438 11.375 0 C12.21361572 0.00338379 13.05223145 0.00676758 13.91625977 0.01025391 C16.61409509 0.48523543 17.53498005 1.18753039 19.12109375 3.3984375 C18.99609375 6.4609375 18.99609375 6.4609375 18.12109375 9.3984375 C13.64846648 12.38018901 9.38161575 11.72771212 4.12109375 11.7109375 C3.11046875 11.72705078 2.09984375 11.74316406 1.05859375 11.75976562 C-0.39546875 11.76073242 -0.39546875 11.76073242 -1.87890625 11.76171875 C-2.76578125 11.76469971 -3.65265625 11.76768066 -4.56640625 11.77075195 C-7.33446458 11.32509222 -8.24784894 10.64955228 -9.87890625 8.3984375 C-9.81640625 5.8984375 -9.81640625 5.8984375 -8.87890625 3.3984375 C-5.94900838 0.67289419 -3.96524944 0.01597817 0 0 Z " fill="#F7F7F7" transform="translate(353.87890625,304.6015625)"/>
  <path d="M0 0 C4.6 2.2 4.6 2.2 6 5 C6.203125 7.05859375 6.203125 7.05859375 6.25 9.4375 C6.27578125 10.21996094 6.3015625 11.00242187 6.328125 11.80859375 C5.91962728 14.53677498 5.16727539 15.3441611 3 17 C-1.71791502 18.57263834 -5.41548776 18.77539961 -9.9375 16.5625 C-12.5486366 13.31836059 -12.72982459 11.27935673 -12.48046875 7.1953125 C-11.01059193 0.47928995 -6.15944644 -0.87992092 0 0 Z " fill="#F5F5F5" transform="translate(360,266)"/>
  <path d="M0 0 C3.84252895 2.0300153 6.66948642 3.74235653 8 8 C8 9.32 8 10.64 8 12 C0.41 12 -7.18 12 -15 12 C-13.8565811 6.28290548 -12.80917917 5.0878996 -9 1 C-5.89046621 -0.5547669 -3.43733239 -0.28644437 0 0 Z " fill="#EBEBEB" transform="translate(420,267)"/>
  <path d="M0 0 C2.5625 1.625 2.5625 1.625 4 4 C4.4375 7.0625 4.4375 7.0625 4 10 C2.45493534 12.03667615 1.27853844 12.86073078 -1 14 C-8.08571429 14.57142857 -8.08571429 14.57142857 -11.5 12.4375 C-13.57491801 9.06575823 -13.56495922 6.88409465 -13 3 C-9.9411347 -1.12281845 -4.68261949 -0.76468465 0 0 Z " fill="#0A0A0A" transform="translate(127,236)"/>
  <path d="M0 0 C0.66 0 1.32 0 2 0 C2 10.23 2 20.46 2 31 C1.67 31 1.34 31 1 31 C0.67 22.75 0.34 14.5 0 6 C-0.99 6.495 -0.99 6.495 -2 7 C-1.34 4.69 -0.68 2.38 0 0 Z " fill="#AEAEAE" transform="translate(87,259)"/>
</svg>
